<?xml version="1.0" encoding="utf-8"?>
<!-- Generator: Adobe Illustrator 22.1.0, SVG Export Plug-In . SVG Version: 6.00 Build 0)  -->
<svg version="1.1" id="Layer_1" xmlns="http://www.w3.org/2000/svg" xmlns:xlink="http://www.w3.org/1999/xlink" x="0px" y="0px"
	 viewBox="0 0 158 158" style="enable-background:new 0 0 158 158;" xml:space="preserve">
<style type="text/css">
	.st0{fill:#2D993E;}
	.st1{fill:#FFFFFF;}
</style>
<g>
	<polygon class="st0" points="0,117 79,158 158,117 158,0 0,0 	"/>
	<path class="st1" d="M13.1,44.2c3.6-1,7.2-1.9,10.8-2.9c8.2-2.3,16.4-4.8,24.7-7.1c4.9-1.4,9.8-2.7,14.7-4
		c4.8-1.3,9.6-2.8,14.4-4.1c1.1-0.3,2.4-0.1,3.5,0.3c6.3,2.2,12.6,4.6,18.9,6.8c7.8,2.8,15.6,5.6,23.5,8.4c5,1.8,10.1,3.7,15.1,5.5
		c1,0.4,2,0.8,3.2,1.3c-4.9,2-9.7,3.9-14.4,5.8c0.7,1.5,1.4,3,2.1,4.5c1.3,2.9,1,5.9,0.5,8.9c-0.5,2.4-1.2,4.7-1.7,7.1
		c-0.1,0.4,0,1,0.3,1.4c1.3,2.1,0.8,4.3-1.2,5.7c-0.3,0.2-0.7,0.8-0.6,1.2c0.1,3.9,2.3,10.1,5.9,13c-2.1,0.9-4.1,1.9-6.1,2.5
		c-1.5,0.5-2.7-0.3-3.6-2.3c-1.5-3.2-2.5-6.6-1.7-10.2c0.3-1.6,1-3,1.5-4.6c0.1-0.5,0.2-1.1,0-1.5c-0.8-2-0.4-3.9,1.4-5.1
		c0.2-0.2,0.5-0.4,0.6-0.6c1.2-4.3,2.5-8.7,1.2-13.2c-0.4-1.5-1.4-3-2.2-4.4c-0.2-0.3-1-0.6-1.4-0.4c-4.3,1.7-8.5,3.4-12.8,5.1
		c-3.2,1.3-6.5,2.6-9.7,3.8c-6.1,2.5-12.3,4.9-18.4,7.4c-1.2,0.5-2.2,0.3-3.3-0.1c-5.8-2.5-11.7-5.1-17.5-7.6
		c-7.5-3.2-15.1-6.5-22.7-9.7c-4.7-2-9.4-4-14.1-6c-3.6-1.5-7.2-3.1-10.7-4.6C13.1,44.4,13.1,44.3,13.1,44.2"/>
	<path class="st1" d="M43,63.6c6.8,2.9,13.4,5.7,20,8.6c5.3,2.3,10.5,4.6,15.9,6.8c0.8,0.3,1.9,0.3,2.8-0.1
		c6.4-2.5,12.8-5.1,19.2-7.7c4.2-1.7,8.4-3.4,12.8-5.2c2,6.5,2.4,13.1,1,20c-15.5-3.4-28.2,1.1-38.5,13.2
		c-8.3-13.3-20.1-19.8-36-18.6C39.7,74.8,40.9,69.2,43,63.6"/>
</g>
</svg>
