<?xml version="1.0" encoding="utf-8"?>
<!-- Generator: Adobe Illustrator 22.1.0, SVG Export Plug-In . SVG Version: 6.00 Build 0)  -->
<svg version="1.1" id="Layer_1" xmlns="http://www.w3.org/2000/svg" xmlns:xlink="http://www.w3.org/1999/xlink" x="0px" y="0px"
	 viewBox="0 0 145 63.5" style="enable-background:new 0 0 145 63.5;" xml:space="preserve">
<style type="text/css">
	.st0{fill:#ECECEC;}
	.st1{fill:#24904D;}
	.st2{fill:#FF3D38;}
	.st3{fill:#F78614;}
	.st4{fill:#0072EC;}
	.st5{fill:#70C9EE;}
</style>
<rect x="-44.5" y="-20.6" class="st0" width="234" height="107.9"/>
<g>
	<g>
		<path class="st1" d="M65.3,46.5c0-4.2,1.9-7.8,4.8-10.2c1.3-1,0.3-3-1.3-2.9h-0.2c-5.9,1-10.6,5.8-11,11.7
			c-0.8,7.8,5.4,14.4,13.1,14.4l0,0c1.1,0,1.4-1.4,0.6-2.1C67.7,55.3,65.3,51.1,65.3,46.5z"/>
		<path class="st2" d="M55.2,30.8c3.8-1.6,7.8-1.4,11.4,0.3c1.4,0.8,2.9-0.8,2.1-2.2c0,0,0,0,0-0.2c-3.2-5-9.4-7.4-15.2-5.4
			c-7.5,2.4-11,10.7-8,17.8l0,0c0.5,1,1.9,0.8,2.1-0.3C48.2,36.6,51.1,32.6,55.2,30.8z"/>
		<path class="st3" d="M84.5,44.1c-3.8-1.4-6.6-4.5-7.8-8.2c-0.5-1.4-2.7-1.4-3,0.2v0.2c-1.3,5.8,1.6,11.8,7,14.6
			c7,3.5,15.4,0,18.1-7.2l0,0c0.3-1-0.8-1.9-1.8-1.3C93.5,44.9,88.9,45.7,84.5,44.1z"/>
		<path class="st4" d="M88.1,26.5c-3.2,2.6-7.4,3.4-11,2.6c-1.6-0.3-2.6,1.6-1.4,2.7c0,0,0,0,0.2,0.2c4.3,4.2,11,4.6,16,1.4
			c6.6-4.3,8-13.1,3.2-19.2l0,0c-0.6-0.8-2.1-0.3-1.9,0.8C93.5,19.3,91.7,23.6,88.1,26.5z"/>
		<path class="st5" d="M71.7,15c1.4,3.8,0.8,8-1.1,11.2c-0.8,1.4,0.6,3,2.1,2.2h0.2c5.3-2.9,8-9,6.4-14.7C77.3,6,69.3,1.9,62.1,4.6
			l0,0c-1,0.3-1,1.9,0.2,2.1C66.5,7.6,70.1,10.7,71.7,15z"/>
	</g>
</g>
<g>
	<g>
		<path class="st1" d="M65.3,46.5c0-4.2,1.9-7.8,4.8-10.2c1.3-1,0.3-3-1.3-2.9h-0.2c-5.9,1-10.6,5.8-11,11.7
			c-0.8,7.8,5.4,14.4,13.1,14.4l0,0c1.1,0,1.4-1.4,0.6-2.1C67.7,55.3,65.3,51.1,65.3,46.5z"/>
		<path class="st2" d="M55.2,30.8c3.8-1.6,7.8-1.4,11.4,0.3c1.4,0.8,2.9-0.8,2.1-2.2c0,0,0,0,0-0.2c-3.2-5-9.4-7.4-15.2-5.4
			c-7.5,2.4-11,10.7-8,17.8l0,0c0.5,1,1.9,0.8,2.1-0.3C48.2,36.6,51.1,32.6,55.2,30.8z"/>
		<path class="st3" d="M84.5,44.1c-3.8-1.4-6.6-4.5-7.8-8.2c-0.5-1.4-2.7-1.4-3,0.2v0.2c-1.3,5.8,1.6,11.8,7,14.6
			c7,3.5,15.4,0,18.1-7.2l0,0c0.3-1-0.8-1.9-1.8-1.3C93.5,44.9,88.9,45.7,84.5,44.1z"/>
		<path class="st4" d="M88.1,26.5c-3.2,2.6-7.4,3.4-11,2.6c-1.6-0.3-2.6,1.6-1.4,2.7c0,0,0,0,0.2,0.2c4.3,4.2,11,4.6,16,1.4
			c6.6-4.3,8-13.1,3.2-19.2l0,0c-0.6-0.8-2.1-0.3-1.9,0.8C93.5,19.3,91.7,23.6,88.1,26.5z"/>
		<path class="st5" d="M71.7,15c1.4,3.8,0.8,8-1.1,11.2c-0.8,1.4,0.6,3,2.1,2.2h0.2c5.3-2.9,8-9,6.4-14.7C77.3,6,69.3,1.9,62.1,4.6
			l0,0c-1,0.3-1,1.9,0.2,2.1C66.5,7.6,70.1,10.7,71.7,15z"/>
	</g>
</g>
</svg>
