<?xml version="1.0" encoding="utf-8"?>
<!-- Generator: Adobe Illustrator 22.1.0, SVG Export Plug-In . SVG Version: 6.00 Build 0)  -->
<svg version="1.1" id="Layer_1" xmlns="http://www.w3.org/2000/svg" xmlns:xlink="http://www.w3.org/1999/xlink" x="0px" y="0px"
	 viewBox="0 0 145 36" style="enable-background:new 0 0 145 36;" xml:space="preserve">
<style type="text/css">
	.st0{fill:#FFFFFF;}
	.st1{fill:#24904D;}
	.st2{fill:#FF3D38;}
	.st3{fill:#F78614;}
	.st4{fill:#0072EC;}
	.st5{fill:#70C9EE;}
</style>
<g>
	<g>
		<polygon class="st0" points="74.7,26.4 67.6,26.4 67.6,19.8 72.9,19.8 72.9,16.3 67.6,16.3 67.6,9.8 74.2,9.8 74.2,12.4 78,12.4 
			78,6.2 60.4,6.2 60.4,9.6 63.2,9.6 63.2,26.7 60.4,26.7 60.4,30 78.5,30 78.5,23.8 74.7,23.8 		"/>
		<path class="st0" d="M91.8,16.2c-2.5-0.9-4.7-1.7-4.7-3.9c0-1.8,1.6-2.6,3.5-2.6c1.8,0,3.5,0.6,3.5,1.8v1.6h4V10
			c0-2.7-3.8-4.2-7.5-4.2c-4.1,0-7.9,1.8-7.9,6.6c0,4.2,3.1,5.7,6.3,6.9c2.7,1.1,5.4,1.8,5.4,4.2c0,1.9-1.7,2.9-4.1,2.9
			c-2.2,0-4.2-0.9-4.2-2.4v-1.8h-4V25c0,3.6,4.2,5.3,8.1,5.3c4.5,0,8.5-2.2,8.5-7.1C98.8,18.8,95.3,17.4,91.8,16.2z"/>
		<polygon class="st0" points="39.7,9.6 42.6,9.6 42.6,26.7 39.7,26.7 39.7,30 50.1,30 50.1,26.7 46.9,26.7 46.9,20.3 52.7,20.3 
			52.7,16.8 46.9,16.8 46.9,10 52.9,10 52.9,12.4 56.7,12.4 56.7,6.2 39.7,6.2 		"/>
		<path class="st0" d="M119.2,22.8c-1.4,1.9-3.6,2.9-6,2.9c-4.3,0-7.5-3.3-7.5-7.7s3.2-7.7,7.5-7.7c2.4,0,4.6,1.1,6,3l0.2,0.2
			l4.2-1.6l-0.3-0.4C121,8,117.3,6,113.2,6c-6.6,0-12,5.4-12,12s5.4,12,12,12c4.1,0,7.9-2.1,10.1-5.5l0.3-0.4l-4.2-1.6L119.2,22.8z"
			/>
	</g>
	<g>
		<path class="st1" d="M13.6,27.2c0-2.6,1.2-4.9,3-6.4c0.8-0.6,0.2-1.9-0.8-1.8h-0.1c-3.7,0.6-6.6,3.6-6.9,7.3c-0.5,4.9,3.4,9,8.2,9
			l0,0c0.7,0,0.9-0.9,0.4-1.3C15.1,32.7,13.6,30.1,13.6,27.2z"/>
		<path class="st2" d="M7.3,17.4c2.4-1,4.9-0.9,7.1,0.2c0.9,0.5,1.8-0.5,1.3-1.4c0,0,0,0,0-0.1c-2-3.1-5.9-4.6-9.5-3.4
			c-4.7,1.5-6.9,6.7-5,11.1l0,0c0.3,0.6,1.2,0.5,1.3-0.2C2.9,21,4.7,18.5,7.3,17.4z"/>
		<path class="st3" d="M25.6,25.7c-2.4-0.9-4.1-2.8-4.9-5.1c-0.3-0.9-1.7-0.9-1.9,0.1v0.1c-0.8,3.6,1,7.4,4.4,9.1
			c4.4,2.2,9.6,0,11.3-4.5l0,0c0.2-0.6-0.5-1.2-1.1-0.8C31.2,26.2,28.3,26.7,25.6,25.7z"/>
		<path class="st4" d="M27.8,14.7c-2,1.6-4.6,2.1-6.9,1.6c-1-0.2-1.6,1-0.9,1.7c0,0,0,0,0.1,0.1c2.7,2.6,6.9,2.9,10,0.9
			c4.1-2.7,5-8.2,2-12l0,0c-0.4-0.5-1.3-0.2-1.2,0.5C31.2,10.2,30.1,12.9,27.8,14.7z"/>
		<path class="st5" d="M17.6,7.5c0.9,2.4,0.5,5-0.7,7c-0.5,0.9,0.4,1.9,1.3,1.4h0.1c3.3-1.8,5-5.6,4-9.2C21.1,1.9,16.1-0.7,11.6,1
			l0,0C11,1.2,11,2.2,11.7,2.3C14.3,2.9,16.6,4.8,17.6,7.5z"/>
	</g>
</g>
</svg>
